<svg width="24" height="24" viewBox="0 0 24 24" fill="none" xmlns="http://www.w3.org/2000/svg">
<path fill-rule="evenodd" clip-rule="evenodd" d="M4.14645 4.04907C4.14645 4.07615 3.2135 7.54672 2.07322 11.7616C0.93295 15.9765 -1.71e-06 19.4761 -1.71e-06 19.5386C-1.71e-06 19.6127 0.877477 19.6522 2.52149 19.6522C3.90831 19.6522 5.04298 19.6261 5.04298 19.5941C5.04298 19.5621 5.97593 16.0875 7.11621 11.8726C8.25648 7.65772 9.18943 4.16218 9.18943 4.10457C9.18943 4.04218 8.17131 4 6.66794 4C5.28112 4 4.14645 4.02209 4.14645 4.04907ZM11.5428 4.04451C11.5428 4.06905 11.316 4.9308 11.0387 5.95941C10.7615 6.98812 10.5346 7.86731 10.5345 7.91304C10.5343 7.95878 11.667 7.9963 13.0513 7.9963H15.5686L15.693 7.52451C15.7614 7.26498 15.9903 6.41443 16.2016 5.63426C16.4129 4.8541 16.5858 4.16729 16.5858 4.1079C16.5858 4.04118 15.6223 4 14.0643 4C12.6775 4 11.5428 4.02009 11.5428 4.04451ZM18.8367 4.41628C18.3043 6.40888 16.7977 11.9668 16.7464 12.1269C16.6845 12.32 16.8053 12.3284 19.2363 12.3L21.7911 12.2701L22.8272 8.44033C23.3971 6.33395 23.8941 4.47323 23.9316 4.30527L24 4H21.4739H18.9478L18.8367 4.41628Z" fill="#D7DAE0"/>
</svg>
